<?xml version="1.0" encoding="iso-8859-1"?>
<!-- Generator: Adobe Illustrator 19.0.0, SVG Export Plug-In . SVG Version: 6.00 Build 0)  -->
<svg version="1.1" id="Capa_1" xmlns="http://www.w3.org/2000/svg" xmlns:xlink="http://www.w3.org/1999/xlink" x="0px" y="0px"
	 viewBox="0 0 512 512" style="enable-background:new 0 0 512 512;" xml:space="preserve">
<g>
	<g>
		<path d="M497.697,79.107h-16.54c-8.31,0-15.174,6.252-16.166,14.298l-24.916,13.525c-0.013,0.007-0.026,0.014-0.039,0.021
			l-1.237,0.672c-6.417,3.484-13.159,6.368-20.039,8.571c-11.838,3.791-19.024,5.581-33.718,5.602H322.77
			c-4.14,0-7.497,3.357-7.497,7.497s3.357,7.497,7.497,7.497h62.283c17.391-0.025,26.064-2.403,38.28-6.316
			c4.329-1.386,8.605-3.019,12.799-4.865v28.467c0,4.14,3.357,7.497,7.497,7.497s7.497-3.357,7.497-7.497v-36.083l13.728-7.453
			v119.093l-18.901-10.262c-7.24-3.93-14.85-7.185-22.62-9.673c-12.218-3.913-20.89-6.29-38.263-6.315H243.71
			c-6.493,0-12.772,0.919-18.735,2.6c-0.151,0.038-0.301,0.081-0.449,0.128c-17.022,4.924-31.362,16.214-40.253,31.126
			c-0.931,0.957-1.594,2.145-1.914,3.442c-4.977,9.544-7.809,20.376-7.809,31.865c0,5.671,0.701,11.177,1.994,16.455
			c-0.086,1.646,0.374,3.28,1.307,4.639c5.109,15.912,15.827,29.332,29.826,37.912c1.103,1.223,2.576,2.056,4.195,2.359
			c9.537,4.969,20.36,7.795,31.839,7.795c5.785,0,11.402-0.724,16.776-2.068c1.148-0.05,2.269-0.357,3.278-0.907
			c28.385-8.617,49.107-35.021,49.107-66.184c0-21.926-10.268-41.487-26.235-54.166h81.577
			c7.461,17.095,11.249,35.292,11.249,54.166c0,74.854-60.898,135.751-135.751,135.751s-135.752-60.9-135.752-135.754
			S168.856,136.79,243.71,136.79h49.073c4.14,0,7.497-3.357,7.497-7.497s-3.357-7.497-7.497-7.497H243.71
			c-83.121,0-150.745,67.624-150.745,150.745c0,23.506,5.412,45.772,15.049,65.621H89.972c-0.308-3.447-1.972-6.611-4.695-8.812
			c-3.025-2.445-6.942-3.381-10.743-2.565c-0.036,0.007-0.071,0.016-0.106,0.023l-60.729,13.934C7.046,342.192,0,347.766,0,355.276
			v48.838c0,7.511,7.046,13.084,13.699,14.534l60.729,13.934c0.035,0.008,0.07,0.016,0.106,0.023c0.9,0.193,1.806,0.288,2.706,0.288
			c2.901,0,5.729-0.987,8.038-2.853c2.169-1.753,3.66-4.123,4.338-6.754h21.243c4.14,0,7.497-3.357,7.497-7.497
			s-3.357-7.497-7.497-7.497H90.036v-55.137h26.35c15.025,23.646,36.446,42.845,61.814,55.137h-37.354
			c-4.14,0-7.497,3.357-7.497,7.497s3.357,7.497,7.497,7.497H243.71c83.121,0,150.745-67.624,150.745-150.745
			c0-18.766-3.378-36.935-10.035-54.166h0.226h0.386c14.704,0.021,21.891,1.81,33.729,5.602c6.879,2.203,13.62,5.087,20.039,8.571
			l26.191,14.219c0.993,8.046,7.857,14.298,16.166,14.298h16.54c8.555,0,14.303-6.551,14.303-16.303V95.409
			C512,85.658,506.252,79.107,497.697,79.107z M243.71,218.376c8.372,0,16.305,1.911,23.389,5.317
			c1.306,8.098-1.313,16.428-7.178,22.294c-0.057,0.057-0.112,0.114-0.167,0.172l-1.813,1.933c-2.06-1.203-4.284-2.153-6.631-2.809
			l-0.103-3.224c-0.027-8.635-2.827-16.882-7.731-23.677C243.554,218.382,243.632,218.376,243.71,218.376z M225.699,221.466
			c6.548,4.813,10.515,12.496,10.515,20.718c0,0.08,0.001,0.16,0.004,0.239l0.09,2.803c-2.306,0.626-4.494,1.536-6.527,2.692
			l-2.505-2.35c-6.055-6.017-13.757-9.851-21.923-11.23C211.027,228.638,217.964,224.202,225.699,221.466z M216.344,288.906
			c-5.948,5.984-9.765,13.576-11.185,21.637c-5.632-5.713-9.999-12.668-12.666-20.41c4.827-6.343,12.389-10.167,20.466-10.167
			c0.08,0,0.16-0.001,0.239-0.004l3.173-0.101c0.596,2.221,1.452,4.335,2.541,6.307L216.344,288.906z M216.476,264.857l-3.641,0.115
			c-8.47,0.026-16.567,2.718-23.286,7.447c0.019-8.387,1.952-16.331,5.387-23.419c7.951-1.132,16.074,1.506,21.827,7.259
			c0.056,0.057,0.114,0.112,0.172,0.167l2.215,2.078C218.012,260.485,217.109,262.614,216.476,264.857z M219.754,321.105
			c-1.082-7.906,1.562-15.967,7.28-21.686c0.057-0.056,0.112-0.114,0.167-0.172l2.172-2.316c1.949,1.151,4.046,2.073,6.257,2.733
			l0.118,3.682c0.026,8.496,2.735,16.617,7.493,23.349C234.817,326.623,226.849,324.619,219.754,321.105z M243.709,285.853
			c-7.339,0-13.31-5.972-13.31-13.31s5.971-13.31,13.31-13.31c3.461,0,6.606,1.338,8.976,3.51c0.259,0.345,0.544,0.676,0.87,0.982
			c0.138,0.129,0.282,0.247,0.427,0.363c1.859,2.254,2.984,5.131,3.029,8.264c-0.044,0.37-0.07,0.746-0.058,1.13
			c0.002,0.051,0.01,0.1,0.012,0.15C256.408,280.461,250.681,285.853,243.709,285.853z M261.099,323.828
			c-6.456-4.819-10.357-12.449-10.357-20.606c0-0.08-0.001-0.16-0.004-0.239l-0.096-2.998c2.288-0.579,4.466-1.434,6.496-2.533
			l2.543,2.386c6.082,6.044,13.823,9.894,22.03,11.257C275.949,316.775,268.923,321.168,261.099,323.828z M292.35,296.348
			c-8.056,1.253-16.324-1.37-22.156-7.202c-0.057-0.057-0.114-0.112-0.172-0.167l-2.034-1.908c1.219-2.028,2.186-4.221,2.869-6.535
			l3.265-0.104c8.667-0.027,16.943-2.848,23.752-7.785C297.857,281.146,295.869,289.188,292.35,296.348z M294.853,254.727
			c-4.802,6.664-12.552,10.711-20.856,10.711c-0.08,0-0.16,0.001-0.239,0.004l-2.624,0.084c-0.608-2.374-1.52-4.626-2.686-6.718
			l2.165-2.308c6.115-6.154,9.974-14.009,11.294-22.325C287.657,239.9,292.122,246.91,294.853,254.727z M75.043,417.341
			l-58.036-13.317c-0.035-0.008-0.071-0.016-0.106-0.023c-0.641-0.138-1.433-0.583-1.907-0.956v-5.978l60.049,4.303V417.341z
			 M75.043,386.338l-59.212-4.243c-0.287-0.019-0.564-0.047-0.837-0.075v-4.648c0.284-0.03,0.573-0.058,0.873-0.078l59.176-4.24
			V386.338z M75.043,358.021l-60.049,4.302v-5.978c0.474-0.373,1.266-0.818,1.907-0.955c0.035-0.007,0.071-0.015,0.106-0.023
			l58.036-13.316V358.021z M496.909,246.071h-15.753c-0.722,0-1.309-0.587-1.309-1.309v-2.53V95.409
			c0-0.722,0.587-1.309,1.309-1.309l15.753,0.003c0.054,0.326,0.096,0.76,0.096,1.306v149.353h0.001
			C497.006,245.309,496.964,245.744,496.909,246.071z"/>
	</g>
</g>
<g>
	<g>
		<path d="M142.204,251.763c-10.411,0-18.881,8.471-18.881,18.881c0,10.411,8.47,18.881,18.881,18.881s18.881-8.47,18.881-18.881
			S152.614,251.763,142.204,251.763z M142.204,274.531c-2.143,0-3.887-1.744-3.887-3.887s1.744-3.887,3.887-3.887
			s3.887,1.744,3.887,3.887S144.347,274.531,142.204,274.531z"/>
	</g>
</g>
<g>
	<g>
		<path d="M183.943,329.626c-7.362-7.362-19.34-7.363-26.701-0.001c-3.567,3.565-5.531,8.307-5.531,13.35
			c0,5.043,1.964,9.785,5.531,13.35c3.565,3.567,8.307,5.531,13.35,5.531s9.785-1.964,13.35-5.53
			c3.567-3.565,5.531-8.308,5.531-13.35C189.474,337.934,187.51,333.192,183.943,329.626z M173.342,345.724
			c-1.469,1.468-4.028,1.468-5.498,0c-0.734-0.734-1.139-1.709-1.139-2.748c0-1.039,0.405-2.014,1.139-2.749
			c0.758-0.758,1.753-1.136,2.749-1.136s1.991,0.379,2.749,1.136c0.734,0.735,1.139,1.71,1.139,2.749
			C174.48,344.015,174.075,344.99,173.342,345.724z"/>
	</g>
</g>
<g>
	<g>
		<path d="M241.813,355.167c-10.411,0-18.881,8.47-18.881,18.881c0,10.412,8.47,18.881,18.881,18.881s18.881-8.469,18.881-18.881
			C260.694,363.637,252.224,355.167,241.813,355.167z M241.813,377.935c-2.143,0-3.887-1.743-3.887-3.887
			c0-2.143,1.744-3.887,3.887-3.887s3.887,1.744,3.887,3.887C245.7,376.192,243.956,377.935,241.813,377.935z"/>
	</g>
</g>
<g>
	<g>
		<path d="M327.496,332.308c-3.565-3.567-8.308-5.531-13.35-5.531c-5.043,0-9.786,1.964-13.351,5.531
			c-3.567,3.565-5.531,8.308-5.531,13.35c0,5.043,1.964,9.785,5.531,13.35c3.565,3.567,8.307,5.531,13.35,5.531
			c5.043,0,9.785-1.964,13.35-5.531c3.567-3.565,5.531-8.307,5.531-13.35C333.026,340.616,331.062,335.874,327.496,332.308z
			 M316.893,348.407c-1.468,1.468-4.027,1.468-5.497,0c-0.734-0.735-1.139-1.71-1.139-2.749c0-1.039,0.405-2.014,1.139-2.748
			c0.735-0.734,1.71-1.139,2.749-1.139s2.014,0.405,2.749,1.14c0.734,0.734,1.139,1.709,1.139,2.747
			C318.032,346.697,317.627,347.673,316.893,348.407z"/>
	</g>
</g>
<g>
	<g>
		<path d="M345.217,255.557c-10.411,0-18.881,8.47-18.881,18.881s8.471,18.881,18.881,18.881s18.881-8.47,18.881-18.881
			S355.627,255.557,345.217,255.557z M345.217,278.327c-2.143,0-3.887-1.744-3.887-3.887s1.744-3.887,3.887-3.887
			c2.143,0,3.887,1.744,3.887,3.887S347.36,278.327,345.217,278.327z"/>
	</g>
</g>
<g>
	<g>
		<path d="M443.22,168.57c-4.14,0-7.497,3.357-7.497,7.497v12.995c0,4.14,3.357,7.497,7.497,7.497c4.14,0,7.497-3.357,7.497-7.497
			v-12.995C450.717,171.926,447.36,168.57,443.22,168.57z"/>
	</g>
</g>
<g>
</g>
<g>
</g>
<g>
</g>
<g>
</g>
<g>
</g>
<g>
</g>
<g>
</g>
<g>
</g>
<g>
</g>
<g>
</g>
<g>
</g>
<g>
</g>
<g>
</g>
<g>
</g>
<g>
</g>
</svg>
