<svg height="496pt" viewBox="0 -52 496 496" width="496pt" xmlns="http://www.w3.org/2000/svg"><path d="m456 0h-416c-22.054688 0-40 17.945312-40 40v192c0 22.054688 17.945312 40 40 40h30.28125c3.78125 4.761719 8.6875 8.304688 13.054688 11.449219 8.089843 5.816406 12.664062 9.445312 12.664062 16.503906 0 7.0625-4.574219 10.695313-12.671875 16.511719-8.609375 6.199218-19.328125 13.902344-19.328125 29.511718 0 15.609376 10.71875 23.320313 19.328125 29.511719 8.097656 5.816407 12.671875 9.449219 12.671875 16.511719h16c0-15.609375-10.71875-23.3125-19.328125-29.503906-8.097656-5.824219-12.671875-9.464844-12.671875-16.519532 0-7.054687 4.574219-10.695312 12.671875-16.511718 8.609375-6.199219 19.328125-13.914063 19.328125-29.511719 0-15.601563-10.71875-23.304687-19.328125-29.496094-8.097656-5.816406-12.671875-9.449219-12.671875-16.503906 0-7.042969 4.574219-10.671875 12.664062-16.480469 8.617188-6.183594 19.335938-13.878906 19.335938-29.472656h-16c0 6.832031-4.382812 10.488281-12.023438 16h-35.976562v-32h144v32h-20.855469c2.871094-4.257812 4.855469-9.390625 4.855469-16h-16c0 7.039062-4.574219 10.671875-12.664062 16.480469-8.617188 6.183593-19.335938 13.878906-19.335938 29.472656 0 15.597656 10.71875 23.304687 19.335938 29.496094 8.089843 5.816406 12.664062 9.445312 12.664062 16.503906 0 7.0625-4.574219 10.695313-12.671875 16.511719-8.609375 6.199218-19.328125 13.902344-19.328125 29.511718 0 15.609376 10.71875 23.320313 19.328125 29.511719 8.097656 5.816407 12.671875 9.449219 12.671875 16.511719h16c0-15.609375-10.71875-23.3125-19.328125-29.503906-8.097656-5.824219-12.671875-9.464844-12.671875-16.519532 0-7.054687 4.574219-10.695312 12.671875-16.511718 8.609375-6.199219 19.328125-13.914063 19.328125-29.511719 0-14.351563-9.054688-22-17.207031-27.953125h167.488281c3.78125 4.761719 8.6875 8.304688 13.054688 11.449219 8.089843 5.816406 12.664062 9.445312 12.664062 16.503906 0 7.0625-4.574219 10.695313-12.671875 16.511719-8.609375 6.199218-19.328125 13.902344-19.328125 29.511718 0 15.609376 10.71875 23.320313 19.328125 29.511719 8.097656 5.816407 12.671875 9.449219 12.671875 16.511719h16c0-15.609375-10.71875-23.3125-19.328125-29.503906-8.097656-5.824219-12.671875-9.464844-12.671875-16.519532 0-7.054687 4.574219-10.695312 12.671875-16.511718 8.609375-6.199219 19.328125-13.914063 19.328125-29.511719 0-15.601563-10.71875-23.304687-19.328125-29.496094-8.097656-5.816406-12.671875-9.449219-12.671875-16.503906 0-7.042969 4.574219-10.671875 12.664062-16.480469 8.617188-6.183594 19.335938-13.878906 19.335938-29.472656h-16c0 6.832031-4.382812 10.488281-12.023438 16h-35.976562v-32h144v32h-20.855469c2.871094-4.257812 4.855469-9.390625 4.855469-16h-16c0 7.039062-4.574219 10.671875-12.664062 16.480469-8.617188 6.183593-19.335938 13.878906-19.335938 29.472656 0 15.597656 10.71875 23.304687 19.335938 29.496094 8.089843 5.816406 12.664062 9.445312 12.664062 16.503906 0 7.0625-4.574219 10.695313-12.671875 16.511719-8.609375 6.199218-19.328125 13.902344-19.328125 29.511718 0 15.609376 10.71875 23.320313 19.328125 29.511719 8.097656 5.816407 12.671875 9.449219 12.671875 16.511719h16c0-15.609375-10.71875-23.3125-19.328125-29.503906-8.097656-5.824219-12.671875-9.464844-12.671875-16.519532 0-7.054687 4.574219-10.695312 12.671875-16.511718 8.609375-6.199219 19.328125-13.914063 19.328125-29.511719 0-14.351563-9.054688-22-17.207031-27.953125h41.207031c22.054688 0 40-17.945312 40-40v-192c0-22.054688-17.945312-40-40-40zm-264 80h-48v-16h-64v16h-32v-32h144zm-64 0v16h-32v-16zm-80 16h32v16h64v-16h48v32h-144zm0 80v-32h144v32zm96.359375 80c-.101563-.6875-.359375-1.289062-.359375-2.046875 0-5.9375 3.414062-9.511719 9.289062-13.953125h170.269532c-2.152344 3.847656-3.558594 8.375-3.558594 13.953125 0 .726563.136719 1.351563.175781 2.046875zm63.640625-32v-171.054688l22.113281 11.054688h35.78125l22.105469-11.054688v171.054688zm240-96h-48v-16h-64v16h-32v-32h144zm-64 0v16h-32v-16zm64-48h-144v-32h144zm-144 96v-32h32v16h64v-16h48v32zm176 56c0 13.230469-10.769531 24-24 24h-55.640625c-.101563-.6875-.359375-1.289062-.359375-2.046875 0-5.9375 3.414062-9.511719 9.289062-13.953125h38.710938c8.824219 0 16-7.175781 16-16v-176c0-8.824219-7.175781-16-16-16h-153.886719l-32 16h-28.21875l-32-16h-153.894531c-8.824219 0-16 7.175781-16 16v176c0 8.824219 7.175781 16 16 16h19.558594c-2.152344 3.847656-3.558594 8.375-3.558594 13.953125 0 .726563.136719 1.351563.175781 2.046875h-24.175781c-13.230469 0-24-10.769531-24-24v-192c0-13.230469 10.769531-24 24-24h416c13.230469 0 24 10.769531 24 24zm0 0"/><path d="m248 86.113281-36.945312 73.886719h73.890624zm0 35.773438 11.054688 22.113281h-22.109376zm0 0"/></svg>