<?xml version="1.0" encoding="iso-8859-1"?>
<!-- Generator: Adobe Illustrator 19.0.0, SVG Export Plug-In . SVG Version: 6.00 Build 0)  -->
<svg version="1.1" id="Capa_1" xmlns="http://www.w3.org/2000/svg" xmlns:xlink="http://www.w3.org/1999/xlink" x="0px" y="0px"
	 viewBox="0 0 496 496" style="enable-background:new 0 0 496 496;" xml:space="preserve">
<g>
	<g>
		<g>
			<path d="M480,88V0h-64v88h-16V40h-80v48h-32V40h-80v48h-32V40H96v48H80V0H16v88H0v408h496V88H480z M432,16h32v72h-32V16z M336,56
				h16v16h16V56h16v32h-48V56z M224,56h16v16h16V56h16v32h-48V56z M112,56h16v16h16V56h16v32h-48V56z M32,16h32v72H32V16z M480,136
				h-16v16h16v328h-48V352c0-13.232-10.768-24-24-24H128v16h280c4.416,0,8,3.584,8,8v128H80V352c0-4.416,3.584-8,8-8h24v-16H88
				c-13.232,0-24,10.768-24,24v128H16V152h432v-16H16v-32h464V136z"/>
			<path d="M144,184H96v32H64v48h32v32h48v-32h32v-48h-32V184z M160,232v16h-32v32h-16v-32H80v-16h32v-32h16v32H160z"/>
			<path d="M320,264h112v-48H320V264z M336,232h80v16h-80V232z"/>
		</g>
	</g>
</g>
<g>
</g>
<g>
</g>
<g>
</g>
<g>
</g>
<g>
</g>
<g>
</g>
<g>
</g>
<g>
</g>
<g>
</g>
<g>
</g>
<g>
</g>
<g>
</g>
<g>
</g>
<g>
</g>
<g>
</g>
</svg>
