<?xml version="1.0" encoding="iso-8859-1"?>
<!-- Generator: Adobe Illustrator 19.0.0, SVG Export Plug-In . SVG Version: 6.00 Build 0)  -->
<svg version="1.1" id="Capa_1" xmlns="http://www.w3.org/2000/svg" xmlns:xlink="http://www.w3.org/1999/xlink" x="0px" y="0px"
	 viewBox="0 0 496 496" style="enable-background:new 0 0 496 496;" xml:space="preserve">
<g>
	<g>
		<g>
			<path d="M248,0C111.256,0,0,111.256,0,248s111.256,248,248,248s248-111.256,248-248S384.744,0,248,0z M248,480
				C120.072,480,16,375.928,16,248S120.072,16,248,16s232,104.072,232,232S375.928,480,248,480z"/>
			<path d="M288,248c0-22.056-17.944-40-40-40c-22.056,0-40,17.944-40,40c0,22.056,17.944,40,40,40C270.056,288,288,270.056,288,248
				z M224,248c0-13.232,10.768-24,24-24s24,10.768,24,24s-10.768,24-24,24S224,261.232,224,248z"/>
			<path d="M248,352c-57.344,0-104-46.656-104-104s46.656-104,104-104s104,46.656,104,104c0,19.144-5.24,37.84-15.152,54.088
				l13.656,8.336C361.952,291.664,368,270.088,368,248c0-66.168-53.832-120-120-120s-120,53.832-120,120s53.832,120,120,120
				c35.944,0,69.688-15.912,92.6-43.664l-12.344-10.184C308.4,338.2,279.152,352,248,352z"/>
			<path d="M272,176c0-13.232-10.768-24-24-24s-24,10.768-24,24s10.768,24,24,24S272,189.232,272,176z M240,176c0-4.408,3.592-8,8-8
				s8,3.592,8,8s-3.592,8-8,8C243.592,184,240,180.408,240,176z"/>
			<path d="M202.352,233.168c4.088-12.584-2.824-26.152-15.408-30.24c-12.608-4.088-26.152,2.832-30.24,15.408
				c-4.088,12.592,2.824,26.16,15.408,30.248c2.456,0.8,4.952,1.176,7.4,1.176C189.624,249.752,199.056,243.296,202.352,233.168z
				 M187.136,228.224c-1.36,4.192-5.872,6.504-10.08,5.136c-4.192-1.36-6.496-5.888-5.136-10.08c1.096-3.376,4.24-5.528,7.616-5.528
				c0.816,0,1.648,0.128,2.464,0.392C186.192,219.504,188.496,224.024,187.136,228.224z"/>
			<path d="M191.576,325.664c4.248,3.088,9.176,4.568,14.072,4.568c7.432,0,14.76-3.432,19.456-9.888
				c7.776-10.704,5.392-25.744-5.312-33.52c-10.712-7.768-25.744-5.392-33.528,5.312
				C178.488,302.848,180.864,317.888,191.576,325.664z M199.208,301.544c2.592-3.568,7.608-4.368,11.176-1.768
				c3.568,2.592,4.36,7.608,1.768,11.168c-2.592,3.568-7.616,4.36-11.176,1.776C197.408,310.128,196.616,305.12,199.208,301.544z"/>
			<path d="M290.352,330.24c4.888,0,9.824-1.488,14.072-4.568c10.704-7.784,13.088-22.824,5.312-33.528
				c-7.784-10.696-22.824-13.08-33.528-5.312c-10.704,7.776-13.08,22.816-5.312,33.52
				C275.592,326.816,282.928,330.24,290.352,330.24z M285.616,299.776c3.576-2.6,8.592-1.792,11.176,1.768
				c2.592,3.576,1.8,8.584-1.768,11.176c-3.576,2.584-8.592,1.792-11.176-1.776C281.256,307.376,282.048,302.368,285.616,299.776z"
				/>
			<path d="M323.896,248.576c12.584-4.088,19.496-17.656,15.408-30.248c-4.096-12.576-17.656-19.504-30.24-15.408
				c-12.584,4.088-19.496,17.656-15.408,30.24c3.296,10.128,12.728,16.584,22.848,16.584
				C318.944,249.752,321.44,249.376,323.896,248.576z M308.864,228.224c-1.36-4.192,0.944-8.712,5.136-10.08
				c0.816-0.264,1.648-0.392,2.464-0.392c3.376,0,6.512,2.152,7.616,5.528c1.36,4.192-0.936,8.72-5.136,10.08
				C314.76,234.728,310.232,232.416,308.864,228.224z"/>
			<rect x="192" y="32" width="16" height="16"/>
			<rect x="216" y="56" width="16" height="16"/>
			<rect x="240" y="80" width="16" height="16"/>
			<rect x="264" y="104" width="16" height="16"/>
			<rect x="58.984" y="126.862" transform="matrix(-0.7071 -0.7071 0.7071 -0.7071 18.9876 277.5888)" width="16" height="16"/>
			<rect x="92.917" y="126.866" transform="matrix(0.7071 -0.7071 0.7071 0.7071 -65.8068 110.86)" width="16" height="16"/>
			<rect x="126.862" y="126.864" transform="matrix(0.7071 0.7071 -0.7071 0.7071 134.8635 -55.8613)" width="16" height="16"/>
			<rect x="160.803" y="126.868" transform="matrix(0.7071 0.7071 -0.7071 0.7071 144.8071 -79.8595)" width="16" height="16"/>
			<rect x="32" y="288" width="16" height="16"/>
			<rect x="56" y="264" width="16" height="16"/>
			<rect x="80" y="240" width="16" height="16"/>
			<rect x="104" y="216" width="16" height="16"/>
			<rect x="126.863" y="421.025" transform="matrix(-0.7071 -0.7071 0.7071 -0.7071 -73.141 827.7531)" width="16" height="16"/>
			<rect x="126.833" y="387.051" transform="matrix(0.7071 0.7071 -0.7071 0.7071 318.8344 20.3665)" width="16" height="16"/>
			<rect x="126.848" y="353.106" transform="matrix(0.7071 0.7071 -0.7071 0.7071 294.8362 10.4135)" width="16" height="16"/>
			<rect x="126.863" y="319.193" transform="matrix(-0.7071 -0.7071 0.7071 -0.7071 -1.1346 653.9156)" width="16" height="16"/>
			<rect x="288" y="448" width="16" height="16"/>
			<rect x="264" y="424" width="16" height="16"/>
			<rect x="240" y="400" width="16" height="16"/>
			<rect x="216" y="376" width="16" height="16"/>
			<rect x="421.008" y="353.105" transform="matrix(-0.7071 -0.7071 0.7071 -0.7071 477.0232 919.7997)" width="16" height="16"/>
			<rect x="387.034" y="353.135" transform="matrix(-0.7071 -0.7071 0.7071 -0.7071 419.0046 895.8276)" width="16" height="16"/>
			<rect x="353.13" y="353.12" transform="matrix(-0.7071 -0.7071 0.7071 -0.7071 361.1361 871.8275)" width="16" height="16"/>
			<rect x="319.185" y="353.105" transform="matrix(-0.7071 -0.7071 0.7071 -0.7071 303.2008 847.799)" width="16" height="16"/>
			<rect x="448" y="192" width="16" height="16"/>
			<rect x="424" y="216" width="16" height="16"/>
			<rect x="400" y="240" width="16" height="16"/>
			<rect x="376" y="264" width="16" height="16"/>
			<rect x="353.122" y="58.977" transform="matrix(0.7071 0.7071 -0.7071 0.7071 153.1297 -235.7348)" width="16" height="16"/>
			<rect x="353.118" y="92.933" transform="matrix(0.7071 0.7071 -0.7071 0.7071 177.1392 -225.7865)" width="16" height="16"/>
			<rect x="353.12" y="126.878" transform="matrix(-0.7071 -0.7071 0.7071 -0.7071 521.0967 485.6022)" width="16" height="16"/>
			<rect x="353.116" y="160.811" transform="matrix(0.7071 0.7071 -0.7071 0.7071 225.1355 -205.9041)" width="16" height="16"/>
		</g>
	</g>
</g>
<g>
</g>
<g>
</g>
<g>
</g>
<g>
</g>
<g>
</g>
<g>
</g>
<g>
</g>
<g>
</g>
<g>
</g>
<g>
</g>
<g>
</g>
<g>
</g>
<g>
</g>
<g>
</g>
<g>
</g>
</svg>
