<svg height="512" viewBox="0 0 64 64" width="512" xmlns="http://www.w3.org/2000/svg"><path d="m20 35h14v2h-14z"/><path d="m20 39h14v2h-14z"/><path d="m20 43h13v2h-13z"/><path d="m20 47h13v2h-13z"/><path d="m16 43h2v2h-2z"/><path d="m28 29h2v2h-2z"/><path d="m49 29v-4h-7v-2h3a3 3 0 0 0 3-3v-8a3 3 0 0 0 -3-3h-20a3 3 0 0 0 -3 3v8a3 3 0 0 0 3 3h3v2h-6v4.465l-5.3 3.535h-6.7v5h-2v-8h-6v24h6v-8h2v5h6.7l6 4h24.714l10-10h4.586v-16zm-9-4h-2v-2h2zm-4 0h-2v-2h2zm10-8h-2v-2h2zm-18-2h2v2h-2zm4 0h2v2h-2zm4 0h2v2h-2zm4 0h2v2h-2zm-16-3a1 1 0 0 1 1-1h20a1 1 0 0 1 1 1v1h-22zm0 3h2v2h-2zm1 6a1 1 0 0 1 -1-1v-1h22v1a1 1 0 0 1 -1 1zm5 2h2v2h-2zm-24 29h-2v-20h2zm2-8v-4h2v4zm38.586 9h-23.286l-6-4h-5.3v-14h4v6h2v-6.465l6-4v-3.535h23v2h-15v2h24v12.586zm13.414-22v12h-2v-12z"/><path d="m36 42h18v-8h-18zm2-6h14v4h-14z"/><path d="m38 44a3 3 0 1 0 3 3 3 3 0 0 0 -3-3zm0 4a1 1 0 1 1 1-1 1 1 0 0 1 -1 1z"/><path d="m46 44a3 3 0 1 0 3 3 3 3 0 0 0 -3-3zm0 4a1 1 0 1 1 1-1 1 1 0 0 1 -1 1z"/></svg>