<svg height="496pt" viewBox="0 0 496 496" width="496pt" xmlns="http://www.w3.org/2000/svg"><path d="m248 240c-13.230469 0-24 10.769531-24 24s10.769531 24 24 24 24-10.769531 24-24-10.769531-24-24-24zm0 32c-4.40625 0-8-3.59375-8-8s3.59375-8 8-8 8 3.59375 8 8-3.59375 8-8 8zm0 0"/><path d="m248 96c-92.640625 0-168 75.359375-168 168s75.359375 168 168 168 168-75.359375 168-168-75.359375-168-168-168zm127.679688 250.167969c-52.71875 22.273437-77.136719-11.320313-93.046876-38.246094 3.464844-2.738281 6.589844-5.875 9.328126-9.347656 14.589843 8.195312 35.007812 18.265625 57.222656 18.265625 15.144531 0 31.105468-4.734375 46.601562-17.894532-4.023437 17.023438-10.875 32.933594-20.105468 47.222657zm-127.679688-42.167969c-22.054688 0-40-17.945312-40-40s17.945312-40 40-40 40 17.945312 40 40-17.945312 40-40 40zm-43.921875-5.367188c2.738281 3.464844 5.875 6.589844 9.347656 9.328126-13.777343 24.535156-32.839843 65.597656-.394531 103.816406-17.015625-4.023438-32.917969-10.875-47.199219-20.097656-22.273437-52.71875 11.320313-77.136719 38.246094-93.046876zm-83.765625-116.800781c52.734375-22.246093 77.136719 11.328125 93.046875 38.246094-3.464844 2.738281-6.589844 5.875-9.328125 9.347656-24.535156-13.777343-65.597656-32.839843-103.816406-.394531 4.03125-17.015625 10.882812-32.917969 20.097656-47.199219zm171.609375 47.535157c-2.738281-3.464844-5.875-6.589844-9.347656-9.328126 13.777343-24.535156 32.839843-65.597656.394531-103.816406 17.015625 4.023438 32.917969 10.875 47.199219 20.097656 22.273437 52.71875-11.320313 77.136719-38.246094 93.046876zm107.703125 41.984374c-34.511719 45.601563-72.417969 28.738282-99.648438 13.375 1.617188-4.046874 2.75-8.320312 3.390626-12.765624 28.167968-.335938 73.320312-4.367188 90.152343-51.703126 4.175781 13.863282 6.480469 28.535157 6.480469 43.742188 0 2.480469-.257812 4.902344-.375 7.351562zm-16.617188-76.886718c-7.054687 56.839844-48.367187 61.183594-79.648437 61.503906-.640625-4.441406-1.773437-8.722656-3.40625-12.761719 24.175781-14.351562 61.144531-40.351562 52.246094-89.566406 12.425781 11.734375 22.878906 25.496094 30.808593 40.824219zm-127.65625-82.089844c45.59375 34.503906 28.738282 72.417969 13.375 99.648438-4.046874-1.617188-8.320312-2.75-12.765624-3.390626-.335938-28.167968-4.367188-73.320312-51.703126-90.152343 13.863282-4.175781 28.535157-6.480469 43.742188-6.480469 2.480469 0 4.894531.257812 7.351562.375zm-76.886718 16.617188c56.839844 7.054687 61.183594 48.367187 61.503906 79.648437-4.441406.640625-8.722656 1.773437-12.761719 3.40625-14.351562-24.175781-40.34375-61.160156-89.566406-52.246094 11.734375-12.433593 25.503906-22.878906 40.824219-30.808593zm-82.089844 127.65625c34.511719-45.601563 72.417969-28.726563 99.648438-13.375-1.617188 4.046874-2.75 8.320312-3.390626 12.765624-28.167968.335938-73.320312 4.367188-90.152343 51.703126-4.175781-13.863282-6.480469-28.535157-6.480469-43.742188 0-2.480469.257812-4.902344.375-7.351562zm16.617188 76.886718c7.054687-56.839844 48.367187-61.183594 79.648437-61.503906.640625 4.441406 1.773437 8.722656 3.40625 12.761719-24.175781 14.351562-61.144531 40.351562-52.246094 89.566406-12.425781-11.734375-22.878906-25.496094-30.808593-40.824219zm127.65625 82.089844c-45.59375-34.503906-28.738282-72.417969-13.375-99.648438 4.046874 1.617188 8.320312 2.75 12.765624 3.390626.335938 28.167968 4.367188 73.320312 51.703126 90.152343-13.863282 4.175781-28.535157 6.480469-43.742188 6.480469-2.480469 0-4.894531-.257812-7.351562-.375zm76.886718-16.617188c-56.839844-7.054687-61.183594-48.367187-61.503906-79.648437 4.441406-.640625 8.722656-1.785156 12.769531-3.40625 12.863281 21.671875 35.039063 53.632813 74.960938 53.632813 4.636719 0 9.589843-.585938 14.726562-1.523438-11.769531 12.488281-25.578125 22.984375-40.953125 30.945312zm0 0"/><path d="m496 216h-32v-184h-32v-32h-64v32h-240v-32h-64v32h-32v184h-32v64h32v184h32v32h64v-32h240v32h64v-32h32v-184h32zm-48-104h-24c-4.40625 0-8-3.59375-8-8v-56h32zm-64-96h32v16h-32zm-304 0h32v16h-32zm320 32v16h-352v-16zm-384 216v-32h16v32zm96 216h-32v-16h32zm304 0h-32v-16h32zm-368-32v-368h352v24c0 13.230469 10.769531 24 24 24h24v320zm432-184h-16v-32h16zm0 0"/><path d="m416 416h16v16h-16zm0 0"/><path d="m416 384h16v16h-16zm0 0"/><path d="m64 416h16v16h-16zm0 0"/><path d="m64 384h16v16h-16zm0 0"/></svg>