<svg id="Layer_5" enable-background="new 0 0 64 64" height="512" viewBox="0 0 64 64" width="512" xmlns="http://www.w3.org/2000/svg"><path d="m18 13c2.206 0 4-1.794 4-4s-1.794-4-4-4-4 1.794-4 4 1.794 4 4 4zm0-6c1.103 0 2 .897 2 2s-.897 2-2 2-2-.897-2-2 .897-2 2-2z"/><path d="m14 55c0 2.206 1.794 4 4 4s4-1.794 4-4-1.794-4-4-4-4 1.794-4 4zm6 0c0 1.103-.897 2-2 2s-2-.897-2-2 .897-2 2-2 2 .897 2 2z"/><path d="m46 51c-2.206 0-4 1.794-4 4s1.794 4 4 4 4-1.794 4-4-1.794-4-4-4zm0 6c-1.103 0-2-.897-2-2s.897-2 2-2 2 .897 2 2-.897 2-2 2z"/><path d="m50 48.08v-6.264c1.161-.414 2-1.514 2-2.816v-19c0-1.302-.839-2.402-2-2.816v-1.264c2.449-1.42 4-4.07 4-6.92 0-4.411-3.589-8-8-8s-8 3.589-8 8c0 2.85 1.551 5.5 4 6.92v1.264c-1.161.414-2 1.514-2 2.816v19c0 1.302.839 2.402 2 2.816v6.264c-2.449 1.42-4 4.07-4 6.92 0 4.411 3.589 8 8 8s8-3.589 8-8c0-2.85-1.551-5.5-4-6.92zm-10-39.08c0-3.309 2.691-6 6-6s6 2.691 6 6c0 2.298-1.346 4.423-3.43 5.414l-.57.272v2.314h-4v-2.314l-.57-.271c-2.084-.992-3.43-3.117-3.43-5.415zm2 11c0-.552.449-1 1-1h6c.551 0 1 .448 1 1v19c0 .552-.449 1-1 1h-6c-.551 0-1-.448-1-1zm4 41c-3.309 0-6-2.691-6-6 0-2.298 1.346-4.423 3.43-5.414l.57-.272v-7.314h4v7.314l.57.271c2.084.992 3.43 3.117 3.43 5.415 0 3.309-2.691 6-6 6z"/><path d="m26 9c0-4.411-3.589-8-8-8s-8 3.589-8 8c0 2.85 1.551 5.5 4 6.92v1.264c-1.161.414-2 1.514-2 2.816v8c0 1.302.839 2.402 2 2.816v2.184h-1c-1.654 0-3 1.346-3 3s1.346 3 3 3h1v2h-1c-1.654 0-3 1.346-3 3s1.346 3 3 3h1v1.08c-2.449 1.42-4 4.07-4 6.92 0 4.411 3.589 8 8 8s8-3.589 8-8c0-2.85-1.551-5.5-4-6.92v-1.08h1c1.654 0 3-1.346 3-3s-1.346-3-3-3h-1v-2h1c1.654 0 3-1.346 3-3s-1.346-3-3-3h-1v-2.184c1.161-.414 2-1.514 2-2.816v-8c0-1.302-.839-2.402-2-2.816v-1.264c2.449-1.42 4-4.07 4-6.92zm-14 0c0-3.309 2.691-6 6-6s6 2.691 6 6c0 2.298-1.346 4.423-3.43 5.414l-.57.272v2.314h-4v-2.314l-.57-.271c-2.084-.992-3.43-3.117-3.43-5.415zm8.57 40.586c2.084.991 3.43 3.116 3.43 5.414 0 3.309-2.691 6-6 6s-6-2.691-6-6c0-2.298 1.346-4.423 3.43-5.414l.57-.272v-2.314h4v2.314zm3.43-5.586c0 .552-.449 1-1 1h-10c-.551 0-1-.448-1-1s.449-1 1-1h10c.551 0 1 .448 1 1zm-4-3h-4v-2h4zm4-5c0 .552-.449 1-1 1h-10c-.551 0-1-.448-1-1s.449-1 1-1h10c.551 0 1 .448 1 1zm-8-3v-2h4v2zm6-5c0 .552-.449 1-1 1h-6c-.551 0-1-.448-1-1v-8c0-.552.449-1 1-1h6c.551 0 1 .448 1 1z"/><path d="m46 13c2.206 0 4-1.794 4-4s-1.794-4-4-4-4 1.794-4 4 1.794 4 4 4zm0-6c1.103 0 2 .897 2 2s-.897 2-2 2-2-.897-2-2 .897-2 2-2z"/><path d="m16 21h4v2h-4z"/><path d="m16 25h4v2h-4z"/></svg>