<svg id="Layer_1" height="512" viewBox="0 0 128 128" width="512" xmlns="http://www.w3.org/2000/svg" data-name="Layer 1"><path d="m106.054 21.946a25.831 25.831 0 0 0 -36.532 0 25.993 25.993 0 0 0 -1.877 2.1 1.728 1.728 0 0 0 -.651.515l-49.604 65.005a15.064 15.064 0 0 0 1.319 19.725 13.471 13.471 0 0 0 1.016.917 15.054 15.054 0 0 0 18.708.4l65.008-49.6a1.732 1.732 0 0 0 .516-.651 26.261 26.261 0 0 0 2.1-1.878 25.83 25.83 0 0 0 0-36.531zm-70.939 84.87a9.857 9.857 0 0 1 -13.856.068c-.024-.024-.051-.044-.075-.069s-.029-.034-.045-.05a9.848 9.848 0 1 1 13.977.051zm5.535-2.3a13.332 13.332 0 0 0 -17.174-17.157l38.748-50.78a25.817 25.817 0 0 0 25.564 29.465 26.2 26.2 0 0 0 3.612-.254zm62.93-48.516a22.331 22.331 0 1 1 6.541-15.791 22.188 22.188 0 0 1 -6.541 15.791z"/><path d="m95.471 32.529a10.865 10.865 0 1 0 0 15.365 10.792 10.792 0 0 0 0-15.365zm-2.471 12.891a7.365 7.365 0 1 1 0-10.42 7.317 7.317 0 0 1 0 10.42z"/><path d="m87.788 35.7a4.51 4.51 0 1 0 3.189 1.321 4.48 4.48 0 0 0 -3.189-1.321z"/><path d="m76.018 31.216a2.775 2.775 0 0 0 1.963-4.736 2.776 2.776 0 1 0 -1.962 4.737z"/><path d="m87.788 26.342a2.776 2.776 0 1 0 -2.776-2.775 2.779 2.779 0 0 0 2.776 2.775z"/><path d="m99.558 31.216a2.775 2.775 0 1 0 -1.958-.816 2.767 2.767 0 0 0 1.958.816z"/><path d="m104.434 37.437a2.775 2.775 0 1 0 2.776 2.775 2.779 2.779 0 0 0 -2.776-2.775z"/><path d="m97.6 50.02a2.775 2.775 0 1 0 3.925 0 2.779 2.779 0 0 0 -3.925 0z"/><path d="m87.788 54.082a2.775 2.775 0 1 0 2.776 2.775 2.779 2.779 0 0 0 -2.776-2.775z"/><path d="m74.056 50.019a2.776 2.776 0 0 0 1.963 4.738 2.776 2.776 0 1 0 -1.963-4.739z"/><path d="m71.143 37.437a2.775 2.775 0 1 0 2.776 2.775 2.779 2.779 0 0 0 -2.776-2.775z"/><path d="m31.123 96.877a4.205 4.205 0 1 0 0 5.946 4.175 4.175 0 0 0 0-5.946z"/><path d="m110.355 17.645a32.06 32.06 0 0 0 -48.2 3.225l-49.6 65.008a21.1 21.1 0 0 0 29.568 29.568l65.008-49.6a32.354 32.354 0 0 0 3.258-2.849 32.1 32.1 0 0 0 -.034-45.349zm-2.44 42.874a28.832 28.832 0 0 1 -2.906 2.54l-65.009 49.604a17.6 17.6 0 0 1 -24.663-24.663l49.6-65.009a28.831 28.831 0 0 1 2.54-2.905 28.59 28.59 0 0 1 40.433 40.433z"/></svg>