<?xml version="1.0" encoding="iso-8859-1"?>
<!-- Generator: Adobe Illustrator 19.0.0, SVG Export Plug-In . SVG Version: 6.00 Build 0)  -->
<svg version="1.1" id="Capa_1" xmlns="http://www.w3.org/2000/svg" xmlns:xlink="http://www.w3.org/1999/xlink" x="0px" y="0px"
	 viewBox="0 0 512 512" style="enable-background:new 0 0 512 512;" xml:space="preserve">
<path style="fill:#CCCCCC;" d="M322.99,45H189.01C88.76,45,7.5,126.26,7.5,226.51v58.98C7.5,385.74,88.76,467,189.01,467h133.98
	c100.25,0,181.51-81.26,181.51-181.51v-58.98C504.5,126.26,423.24,45,322.99,45z M451.63,307.71c0,70.94-57.51,128.45-128.45,128.45
	H188.82c-70.94,0-128.45-57.51-128.45-128.45V204.29c0-70.94,57.51-128.45,128.45-128.45h134.36c70.94,0,128.45,57.51,128.45,128.45
	V307.71z"/>
<path style="fill:#E3E3E3;" d="M323.18,436.16h17.667c70.94,0,128.45-57.51,128.45-128.45V204.29
	c0-70.94-57.51-128.45-128.45-128.45H323.18c70.94,0,128.45,57.51,128.45,128.45v103.42C451.63,378.65,394.12,436.16,323.18,436.16z
	"/>
<path style="fill:#A6A6A6;" d="M188.82,75.84h-25c-70.94,0-128.45,57.51-128.45,128.45v103.42c0,70.94,57.51,128.45,128.45,128.45
	h25c-70.94,0-128.45-57.51-128.45-128.45V204.29C60.37,133.35,117.88,75.84,188.82,75.84z"/>
<g>
	<path style="fill:#8C8C8C;" d="M322.99,45h-25c100.25,0,181.51,81.26,181.51,181.51v58.98C479.5,385.74,398.24,467,297.99,467h25
		c100.25,0,181.51-81.26,181.51-181.51v-58.98C504.5,126.26,423.24,45,322.99,45z"/>
	<path style="fill:#8C8C8C;" d="M463.4,171.53c-0.46,15.84-3.99,32.18-14.29,42.61c-4.13,4.19-9.88,7.73-16.85,10.87
		c-29.97,13.54-82.45,19.88-125.22,40.81c-24.083,11.865-40.341,50.86-47.263,70.684c-1.251,3.582-6.302,3.582-7.553,0
		c-6.923-19.824-23.18-58.819-47.263-70.684c-52.71-25.79-120.17-29.43-142.07-51.68c-10.3-10.43-13.83-26.77-14.29-42.61
		c-0.493-16.255,2.141-32.075,3.955-40.831c0.629-3.037,4.313-4.226,6.609-2.142c9.446,8.574,32.865,27.264,75.086,46.214
		c57.35,25.89,114.79,57.19,121.75,112.6c6.96-55.41,64.4-86.71,121.75-112.6c19.94-8.95,35.68-17.84,47.74-25.64
		c13.489-8.709,22.37-16.055,27.354-20.579c2.294-2.083,5.973-0.885,6.601,2.149C461.259,139.456,463.893,155.276,463.4,171.53z"/>
</g>
<path style="fill:#737474;" d="M463.4,171.53c-0.46,15.84-3.99,32.18-14.29,42.61c-4.13,4.19-9.88,7.73-16.85,10.87
	c6.2-29.14,1.23-47.8-0.96-57.66c-1.17-5.22-3.51-12.09-5.81-18.22c13.489-8.709,22.37-16.055,27.354-20.579
	c2.294-2.083,5.973-0.885,6.601,2.149C461.259,139.456,463.893,155.276,463.4,171.53z"/>
<path style="fill:#CCCCCC;" d="M463.4,171.53c-8.89,5.64-18.5,10.95-28.59,15.94c-28.46,14.1-60.72,25.63-91.21,34.65
	c-70.8,20.96-87.6,79.43-87.6,79.43s-16.8-58.47-87.6-79.43c-41.29-12.21-85.84-29.04-119.8-50.59
	c-0.493-16.255,2.141-32.075,3.955-40.831c0.629-3.037,4.313-4.226,6.609-2.142c9.446,8.574,32.865,27.264,75.086,46.214
	c57.35,25.89,114.79,57.19,121.75,112.6c6.96-55.41,64.4-86.71,121.75-112.6c19.94-8.95,35.68-17.84,47.74-25.64
	c13.489-8.709,22.37-16.055,27.354-20.579c2.294-2.083,5.973-0.885,6.601,2.149C461.259,139.456,463.893,155.276,463.4,171.53z"/>
<path style="fill:#A6A6A6;" d="M463.4,171.53c-8.89,5.64-18.5,10.95-28.59,15.94c-0.81-8.8-2.47-15.45-3.51-20.12
	c-1.17-5.22-3.51-12.09-5.81-18.22c13.489-8.709,22.37-16.055,27.354-20.579c2.294-2.083,5.973-0.885,6.601,2.149
	C461.259,139.456,463.893,155.276,463.4,171.53z"/>
<path d="M446.316,83.272c-3.138-2.704-7.873-2.352-10.578,0.786c-2.704,3.138-2.352,7.874,0.786,10.578
	c7.685,6.622,14.703,13.851,21.032,21.57c-1.999,0.074-3.921,0.946-5.299,2.469c-0.098,0.108-4.606,4.999-14.412,12.563
	c-24.879-39-68.056-62.898-114.664-62.898H188.82c-46.609,0-89.786,23.898-114.665,62.899c-9.803-7.561-14.307-12.448-14.398-12.549
	c-1.358-1.517-3.251-2.389-5.228-2.485C86.467,77.336,134.891,52.5,189.008,52.5h133.983c31.519,0,62.391,8.512,89.279,24.617
	c3.554,2.13,8.161,0.973,10.288-2.581c2.128-3.553,0.973-8.159-2.581-10.288C390.762,46.75,357.225,37.5,322.992,37.5H189.008
	C84.789,37.5,0,122.289,0,226.508v58.983C0,389.711,84.789,474.5,189.008,474.5H280c4.142,0,7.5-3.358,7.5-7.5s-3.358-7.5-7.5-7.5
	h-90.992C93.06,459.5,15,381.44,15,285.492v-58.983c0-36.361,11.218-70.147,30.364-98.095c-1.902,8.967-4.789,25.779-4.26,43.295
	c0,0.016,0.001,0.033,0.001,0.049c0.52,17.71,4.482,31.801,11.766,42.038V256c0,4.142,3.358,7.5,7.5,7.5s7.5-3.358,7.5-7.5v-28.695
	c14.389,8.583,35.421,14.101,58.972,20.277c24.024,6.301,51.254,13.441,74.805,24.964c24.348,11.998,42.272,60.191,47.123,77.746
	c0.896,3.252,3.854,5.505,7.228,5.506c0.001,0,0.002,0,0.003,0c3.372,0,6.331-2.252,7.229-5.503
	c4.852-17.557,22.776-65.75,47.104-77.739c23.57-11.532,50.8-18.672,74.824-24.973c23.552-6.177,44.586-11.694,58.972-20.275v80.404
	c0,66.692-54.258,120.95-120.95,120.95H188.82c-66.692,0-120.95-54.258-120.95-120.95V288c0-4.142-3.358-7.5-7.5-7.5
	s-7.5,3.358-7.5,7.5v19.71c0,74.963,60.987,135.95,135.95,135.95h134.36c74.963,0,135.95-60.987,135.95-135.95v-93.915
	c7.286-10.242,11.247-24.332,11.767-42.041c0-0.002,0-0.003,0-0.005c0-0.012,0-0.024,0.001-0.036
	c0.53-17.614-2.39-34.508-4.291-43.439c19.61,28.66,30.393,62.802,30.393,98.233v58.983c0,95.95-78.06,174.01-174.008,174.01H312.25
	c-4.142,0-7.5,3.358-7.5,7.5s3.358,7.5,7.5,7.5h10.742C427.211,474.5,512,389.711,512,285.492v-58.983
	C512,171.451,488.059,119.244,446.316,83.272z M453.235,138.17c1.35,7.727,2.71,18.226,2.722,29.152
	c-28.49,17.432-67.951,33.849-114.487,47.603c-30.59,9.058-51.597,24.667-65.78,40.034c20.967-32.914,64.262-54.896,105.13-73.342
	C418.252,164.812,441.294,148.188,453.235,138.17z M188.82,83.34h134.36c41.748,0,80.397,21.557,102.461,56.676
	c-12.23,8.242-28.992,18.053-50.978,27.923C326.67,189.602,275.528,216.057,256,259.775
	c-19.528-43.719-70.672-70.175-118.677-91.843c-21.979-9.867-38.737-19.676-50.965-27.916
	C108.422,104.897,147.072,83.34,188.82,83.34z M58.771,138.175c11.941,10.018,34.979,26.638,72.396,43.436
	c40.879,18.452,84.177,40.435,105.144,73.35c-14.184-15.367-35.191-30.978-65.784-40.036
	c-46.533-13.753-85.993-30.17-114.482-47.602C56.058,156.422,57.42,145.913,58.771,138.175z M381.353,233.072
	c-24.702,6.478-52.699,13.821-77.63,26.018c-23.125,11.396-39.168,43.959-47.723,65.933c-8.556-21.974-24.603-54.541-47.742-65.942
	c-24.912-12.188-52.909-19.531-77.611-26.009c-26.757-7.017-52.031-13.646-62.419-24.197c-5.189-5.255-8.793-13.175-10.672-23.27
	c28.659,16.152,65.137,30.824,108.715,43.703c27.557,8.16,49.797,23.094,66.102,44.388c12.247,15.994,16.384,29.803,16.418,29.921
	c0.923,3.214,3.864,5.429,7.208,5.429c3.344,0,6.285-2.215,7.208-5.429c0.157-0.545,16.425-54.738,82.517-74.308
	c43.58-12.88,80.059-27.552,108.719-43.704c-1.879,10.095-5.486,18.017-10.68,23.278
	C433.384,219.427,408.11,226.055,381.353,233.072z"/>
<g>
</g>
<g>
</g>
<g>
</g>
<g>
</g>
<g>
</g>
<g>
</g>
<g>
</g>
<g>
</g>
<g>
</g>
<g>
</g>
<g>
</g>
<g>
</g>
<g>
</g>
<g>
</g>
<g>
</g>
</svg>
