<svg height="512pt" viewBox="0 -94 512.01753 512" width="512pt" xmlns="http://www.w3.org/2000/svg"><path d="m230.414062 76.808594c-11.191406.039062-21.058593 7.363281-24.335937 18.066406l-128.734375-55.1875c-22.121094-9.496094-47.777344-4.785156-65.082031 11.949219l-4.976563 4.804687c-4.664062 4.507813-7.2929685 10.722656-7.269531 17.210938.0351562 8.644531 4.675781 16.613281 12.175781 20.914062 9.648438 5.285156 21.640625 3.453125 29.269532-4.472656l1.195312-1.191406c1.789062-1.816406 4.296875-2.734375 6.832031-2.507813 2.539063.222657 4.84375 1.574219 6.285157 3.675781l106.230468 155.835938c7.941406 11.664062 21.140625 18.644531 35.25 18.636719h186.761719c7.34375-.003907 14.339844-3.140625 19.226563-8.628907l102.484374-113.757812c6.183594-7.105469 7.96875-17.03125 4.640626-25.847656l-25.597657-68.265625c-2.585937-6.972657-8.09375-12.46875-15.070312-15.035157-6.804688-2.492187-14.34375-2.003906-20.769531 1.339844l-100.097657 42.460938h-33.082031v-25.601563c14.136719 0 25.597656-11.460937 25.597656-25.597656 0-14.140625-11.460937-25.6015625-25.597656-25.6015625h-51.203125c-14.136719 0-25.597656 11.4609375-25.597656 25.6015625 0 14.136719 11.460937 25.597656 25.597656 25.597656v25.601563zm120.152344 17.066406c1.140625 0 2.273438-.226562 3.324219-.671875l102.058594-43.265625c.265625-.121094.53125-.238281.785156-.375 2.164063-1.191406 4.734375-1.378906 7.050781-.523438 2.3125.859376 4.136719 2.683594 5 4.996094l25.601563 68.265625c1.109375 2.890625.5625 6.15625-1.425781 8.53125l-102.445313 113.707031c-1.636719 1.875-4.011719 2.945313-6.5 2.9375h-186.761719c-8.46875-.003906-16.386718-4.191406-21.152344-11.1875l-106.257812-155.871093c-4.308594-6.285157-11.195312-10.320313-18.785156-11.015625-7.589844-.691406-15.089844 2.03125-20.46875 7.433594l-1.195313 1.191406c-2.207031 2.421875-5.734375 3.113281-8.695312 1.707031-2.199219-1.242187-3.574219-3.558594-3.617188-6.082031-.003906-1.867188.75-3.65625 2.089844-4.957032l4.949219-4.78125c12.382812-11.933593 30.707031-15.296874 46.515625-8.53125l139.351562 59.730469c1.117188.238281 2.238281.46875 3.359375.691407 1.109375-.011719 2.207032-.234376 3.234375-.65625.921875-.582032 1.828125-1.183594 2.722657-1.808594.628906-.652344 1.148437-1.402344 1.535156-2.21875.09375-.179688.257812-.296875.332031-.484375.199219-.597657.328125-1.210938.386719-1.835938.148437-.492187.257812-1 .324218-1.511719v-4.878906c0-4.714844 3.820313-8.535156 8.53125-8.535156zm-94.550781-68.265625c0-4.714844 3.820313-8.535156 8.53125-8.535156h51.203125c4.710938 0 8.53125 3.820312 8.53125 8.535156 0 4.710937-3.820312 8.53125-8.53125 8.53125h-51.203125c-4.710937 0-8.53125-3.820313-8.53125-8.53125zm25.597656 25.597656h17.070313v25.601563h-17.070313zm0 0"/><path d="m383.683594 214.289062c4.9375 1.929688 10.558594.589844 14.097656-3.363281l73.683594-81.492187c3.210937-3.550782 4.171875-8.597656 2.492187-13.082032l-12.664062-33.84375c-1.207031-3.214843-3.652344-5.808593-6.792969-7.203124-3.136719-1.390626-6.703125-1.464844-9.898438-.203126l-61.023437 24.355469c-4.894531 1.917969-8.109375 6.644531-8.097656 11.902344v90.984375c-.023438 5.300781 3.246093 10.0625 8.203125 11.945312zm8.863281-100.035156 54.289063-21.675781 10.242187 27.308594-64.53125 71.378906zm0 0"/><path d="m59.75 324.277344c15.949219.359375 31.355469-5.816406 42.636719-17.097656s17.457031-26.6875 17.09375-42.636719c0-27.835938-33.808594-72.933594-46.839844-87.972657-3.324219-3.585937-7.996094-5.625-12.886719-5.625-4.894531 0-9.5625 2.039063-12.890625 5.625-13.039062 15.039063-46.847656 60.136719-46.847656 87.972657-.363281 15.949219 5.8125 31.355469 17.09375 42.636719s26.6875 17.457031 42.640625 17.097656zm0-136.535156c17.203125 19.855468 42.664062 58.027343 42.664062 76.800781.394532 11.429687-3.972656 22.515625-12.0625 30.601562-8.085937 8.089844-19.171874 12.457031-30.601562 12.0625-11.433594.394531-22.515625-3.972656-30.605469-12.0625-8.089843-8.085937-12.457031-19.171875-12.0625-30.601562 0-18.773438 25.464844-56.933594 42.667969-76.800781zm0 0"/><path d="m256.015625 110.941406h-8.535156c-4.710938 0-8.53125 3.820313-8.53125 8.535156 0 4.710938 3.820312 8.53125 8.53125 8.53125h8.535156c4.710937 0 8.53125-3.820312 8.53125-8.53125 0-4.714843-3.820313-8.535156-8.53125-8.535156zm0 0"/><path d="m281.613281 119.476562c0 4.710938 3.824219 8.53125 8.535157 8.53125h34.132812c4.714844 0 8.535156-3.820312 8.535156-8.53125 0-4.714843-3.820312-8.535156-8.535156-8.535156h-34.132812c-4.710938 0-8.535157 3.820313-8.535157 8.535156zm0 0"/><path d="m48.519531 289.707031c2.894531.964844 6.085938.308594 8.367188-1.71875 2.28125-2.027343 3.3125-5.117187 2.699219-8.105469-.617188-2.992187-2.777344-5.425781-5.675782-6.390624-6.484375-2.15625-7.492187-5.050782-7.824218-5.972657-.71875-5.402343.605468-10.878906 3.710937-15.359375 2.609375-3.925781 1.542969-9.222656-2.382813-11.832031-3.925781-2.609375-9.222656-1.539063-11.832031 2.386719-6.054687 8.851562-8.105469 19.84375-5.648437 30.285156 3.105468 8.261719 10.039062 14.496094 18.585937 16.707031zm0 0"/></svg>