<svg id="logo" xmlns="http://www.w3.org/2000/svg" viewBox="0 0 396.876 55.547">
  <title>brand-name</title>
  <g id="supreme">
    <path d="M114.284,525.527a2.557,2.557,0,0,1-.715,1.875,2.494,2.494,0,0,1-1.863.727h-9.234a2.575,2.575,0,0,1-1.887-.727,2.515,2.515,0,0,1-.738-1.875v-9.3H103.1v9.023h7.922V516.5L100.9,504.27a4.26,4.26,0,0,1-1.054-2.79v-7.429a2.515,2.515,0,0,1,.738-1.875,2.575,2.575,0,0,1,1.887-.727h9.234a2.494,2.494,0,0,1,1.863.727,2.557,2.557,0,0,1,.715,1.875v8.531h-3.258v-8.25H103.1v7.734L113.276,514.3a4.189,4.189,0,0,1,1.008,2.742Z" transform="translate(-99.847 -480.181)" style="fill: #231f20"/>
    <path d="M148.7,525.527a2.512,2.512,0,0,1-.739,1.875,2.574,2.574,0,0,1-1.886.727h-9.985a2.489,2.489,0,0,1-2.6-2.6V491.449h3.258v33.8h8.7v-33.8H148.7Z" transform="translate(-99.847 -480.181)" style="fill: #231f20"/>
    <path d="M182.531,510.949a2.527,2.527,0,0,1-2.625,2.625h-8.648v14.555H168v-36.68h11.906a2.575,2.575,0,0,1,1.887.727,2.515,2.515,0,0,1,.738,1.875Zm-3.258-.281V494.332h-8.015v16.336Z" transform="translate(-99.847 -480.181)" style="fill: #231f20"/>
    <path d="M216.737,528.129h-3.422l-6.82-19.641.445-.656h5.812v-13.5h-8.367v33.8h-3.258v-36.68h12.282a2.489,2.489,0,0,1,2.6,2.6v13.922q0,2.647-3.562,2.648c-.235,0-.578-.012-1.031-.035s-.782-.035-.985-.035Q213.6,519.317,216.737,528.129Z" transform="translate(-99.847 -480.181)" style="fill: #231f20"/>
    <path d="M247.1,528.129H235.052v-36.68h11.906v2.883H238.31V508.02h7.875v2.929H238.31v14.3H247.1Z" transform="translate(-99.847 -480.181)" style="fill: #231f20"/>
    <path d="M283.766,528.129H280.7V504.9q0-.492.328-2.882l-6,22.664h-.656l-6-22.664q.329,2.414.328,2.882v23.227h-3.07v-36.68h3.023l5.954,23.86a8.423,8.423,0,0,1,.093,1.054,8.858,8.858,0,0,1,.094-1.054l5.953-23.86h3.024Z" transform="translate(-99.847 -480.181)" style="fill: #231f20"/>
    <path d="M315.111,528.129H303.064v-36.68h11.907v2.883h-8.649V508.02H314.2v2.929h-7.875v14.3h8.789Z" transform="translate(-99.847 -480.181)" style="fill: #231f20"/>
  </g>
  <g id="cutz">
    <path d="M395.043,524.777q0,3.352-3.352,3.352H380.254q-3.258,0-3.258-3.352V494.824q0-3.375,3.258-3.375h11.437q3.353,0,3.352,3.375V503.4h-5.461V496.16h-7.1v27.258h7.1v-7.711h5.461Z" transform="translate(-99.847 -480.181)" style="fill: #231f20"/>
    <path d="M431.146,524.777q0,3.352-3.375,3.352H416.123q-3.329,0-3.328-3.352V491.449h5.484v31.969h7.383V491.449h5.484Z" transform="translate(-99.847 -480.181)" style="fill: #231f20"/>
    <path d="M464.931,496.3h-6.047v31.828h-5.461V496.3h-6.047v-4.852h17.555Z" transform="translate(-99.847 -480.181)" style="fill: #231f20"/>
    <path d="M496.723,528.129H479.871V525.2l10.266-28.8h-9.446v-4.946h15.985v3.164l-10.242,28.571h10.289Z" transform="translate(-99.847 -480.181)" style="fill: #231f20"/>
  </g>
  <g id="separator">
    <path d="M349.476,535.728h-4.571V480.181h4.571Z" transform="translate(-99.847 -480.181)" style="fill: #ed1c24"/>
  </g>
</svg>
