<svg id="logo" xmlns="http://www.w3.org/2000/svg" viewBox="0 0 200.416 166.352">
  <title>brand-logo-alt</title>
  <rect id="SC-box" x="6.5" y="6.5" width="187.416" height="153.352" style="fill: none;stroke: #231f20;stroke-miterlimit: 10;stroke-width: 13px"/>
  <g id="s">
    <path d="M304.129,514.079q0,8.939-8.876,8.937l-29.437,0q-8.812,0-8.812-8.938V490.764H271.63V510.7H289.5V491.516L260.2,463.764a10.359,10.359,0,0,1-3.187-7.813V434.2q0-9,8.813-9l29.438,0q8.874,0,8.874,8.876v21.875H289.508V437.516H271.634V455.2l29.31,27.627a10.388,10.388,0,0,1,3.187,7.938Z" transform="translate(-210.815 -389.29)" style="fill: #231f20"/>
  </g>
  <g id="c">
    <path d="M365.133,514.076q0,8.938-8.938,8.938H325.7q-8.688,0-8.687-8.938V434.2q0-9,8.687-9h30.5q8.937,0,8.938,9v22.875H350.57V437.764H331.633v72.687H350.57V489.889h14.563Z" transform="translate(-210.815 -389.29)" style="fill: #ed1c24"/>
  </g>
</svg>